<svg id="Layer_1" data-name="Layer 1" xmlns="http://www.w3.org/2000/svg" viewBox="0 0 1114.29 1109.7"><defs><style>.cls-1{fill:#eee;}</style></defs><g id="SvgjsG1621"><path class="cls-1" d="M998.58,778.27Q972.95,727.69,943.73,681c-92.72,143.92-248,272.69-444.66,352.77l65.81,161.62C768.31,1112.6,919.58,958.66,998.58,778.27Z" transform="translate(-85.71 -85.71)"/><path class="cls-1" d="M596.09,975.35q40.36-22.44,78-47.22c-173-82.94-333.19-256.16-426.77-486L85.71,507.9C182.45,745.58,376.31,912.25,596.09,975.35Z" transform="translate(-85.71 -85.71)"/><path class="cls-1" d="M855.4,247.34,789.6,85.71C558.11,180,394.07,366.35,327.39,579c16.18,26.65,33.25,52.22,51,76.86,86.11-166.06,255.25-318.27,477-408.56Z" transform="translate(-85.71 -85.71)"/><path class="cls-1" d="M1200,769.23c-89.86-220.72-263.42-380.15-463.71-452.35q-43.37,25.46-83.39,53.56c157,89.44,299.37,253.09,385.48,464.59L1200,769.23Z" transform="translate(-85.71 -85.71)"/><circle class="cls-1" cx="580.82" cy="570.01" r="100.53"/></g></svg>