<svg xmlns="http://www.w3.org/2000/svg" xmlns:xlink="http://www.w3.org/1999/xlink" version="1.1" width="3171.4285714285716" height="1281.1282637250436" viewBox="0 0 3171.4285714285716 1281.1282637250436">
			
			<g transform="scale(8.571428571428571) translate(10, 10)">
				<defs id="SvgjsDefs1620"/><g id="SvgjsG1621" featureKey="HdFLvg-0" transform="matrix(1.4459427901091084,0,0,1.4459427901091084,5.2833588412369865,-7.272074176766018)" fill="#fff"><path xmlns="http://www.w3.org/2000/svg" d="M 70.001021,60.908126 C 68.622608,58.188108 67.145285,55.569902 65.575601,53.061639 58.094083,64.673965 45.56836,75.064135 29.698243,81.525375 l 5.309266,13.040633 C 51.421671,87.88435 63.626862,75.463114 70.001021,60.908126 Z" style="" stroke="none" fill-opacity="1"/><path xmlns="http://www.w3.org/2000/svg" d="m 37.525865,76.809637 c 2.171217,-1.206804 4.270728,-2.478348 6.294108,-3.809591 C 29.857827,66.307862 16.936783,52.331384 9.3857867,33.784604 L -3.6539196,39.093492 C 4.151638,58.27083 19.793082,71.718464 37.525865,76.809637 Z" style="" stroke="none" fill-opacity="1"/><path xmlns="http://www.w3.org/2000/svg" d="M 58.448894,18.069925 53.13963,5.029296 c -18.678298,7.604542 -31.913477,22.643386 -37.293764,39.803947 1.305283,2.150557 2.682822,4.213393 4.114126,6.201433 6.947823,-13.397889 20.595079,-25.679595 38.488902,-32.964751 z" style="" stroke="none" fill-opacity="1"/><path xmlns="http://www.w3.org/2000/svg" d="M 86.252811,60.179111 C 79.002346,42.370497 64.998815,29.506309 48.838299,23.681081 c -2.333081,1.368798 -4.578063,2.810777 -6.728291,4.32107 12.665286,7.216938 24.154499,20.421334 31.10217,37.486225 l 13.040633,-5.309265 z" style="" stroke="none" fill-opacity="1"/><circle xmlns="http://www.w3.org/2000/svg" style="" cx="43.209587" cy="51.021019" r="8.1112623" fill-opacity="1" fill-rule="nonzero" stroke="none"/></g><g id="SvgjsG1622" featureKey="VomJeJ-0" transform="matrix(3.7425147990831023,0,0,3.7425147990831023,148.50299405805964,19.77844304965616)" fill="#fff"><path d="M0.4 4 l2.1 0 l1.2 11.8 l0.2 0 l1.2 -11.8 l2.1 0 l-2.2 16 l-2.4 0 z M8.4 11.58 c0 -5.58 0.12 -7.78 3.12 -7.78 s3.12 2.2 3.12 7.78 c0 6.4 -0.12 8.62 -3.12 8.62 s-3.12 -2.22 -3.12 -8.62 z M10.4 11.58 c0 5.78 0 6.62 1.12 6.62 s1.12 -0.84 1.12 -6.62 c0 -5.2 0 -6.18 -1.12 -6.18 s-1.12 0.98 -1.12 6.18 z M16.44 20 l0 -16 l2 0 l0 14 l2.6 0 l0 2 l-4.6 0 z M22.14 11.58 l0 -7.58 l2 0 l0 7.58 c0 5.78 0 6.62 1 6.62 s1 -0.84 1 -6.62 l0 -7.58 l2 0 l0 7.58 c0 6.4 0 8.62 -3 8.62 s-3 -2.22 -3 -8.62 z M30.040000000000003 20 l0 -16 l1.8 0 l2.62 9.8 l-0.02 -0.2 l0 -9.6 l2 0 l0 16 l-1.8 0 l-2.62 -8.8 l0.02 0.2 l0 8.6 l-2 0 z M38.440000000000005 20 l0 -16 l2 0 l0 16 l-2 0 z M42.440000000000005 20 l0 -16 l4.2 0 l0 1.6 l-2.2 0 l0 6 l1.8 0 l0 1.6 l-1.8 0 l0 6.8 l-2 0 z M47.24000000000001 4 l2 0 l1.2 6.16 l0.2 0 l1.2 -6.16 l2 0 l-2.3 9.04 l0 6.96 l-2 0 l0 -6.96 z"/></g>
			</g>
		</svg>
	